HIERARCHY
ROOT Hips
{
	OFFSET 0.000000 0.000000 0.000000 
	CHANNELS 6 Xposition Yposition Zposition Zrotation Xrotation Yrotation
	JOINT Spine
	{
		OFFSET -0.000000 8.061080 0.000000 
		CHANNELS 3 Zrotation Xrotation Yrotation
		JOINT Spine1
		{
			OFFSET -0.000000 20.532677 0.000000 
			CHANNELS 3 Zrotation Xrotation Yrotation
			JOINT Neck
			{
				OFFSET -0.000000 22.498795 0.000000 
				CHANNELS 3 Zrotation Xrotation Yrotation
				JOINT Head
				{
					OFFSET -0.000000 15.237408 1.966117 
					CHANNELS 3 Zrotation Xrotation Yrotation
					End Site
					{
						OFFSET -0.000000 19.661171 0.000000 
					}
				}
			}
			JOINT LeftShoulder
			{
				OFFSET 3.894675 16.042269 -0.398189 
				CHANNELS 3 Zrotation Xrotation Yrotation
				JOINT LeftArm
				{
					OFFSET 19.709621 0.000000 0.000000 
					CHANNELS 3 Zrotation Xrotation Yrotation
					JOINT LeftForeArm
					{
						OFFSET 25.566900 0.000000 0.000000 
						CHANNELS 3 Zrotation Xrotation Yrotation
						JOINT LeftHand
						{
							OFFSET 25.401896 0.000000 0.000000 
							CHANNELS 3 Zrotation Xrotation Yrotation
							End Site
							{
								OFFSET 14.745877 0.000000 0.000000 
							}
						}
					}
				}
			}
			JOINT RightShoulder
			{
				OFFSET -3.930777 16.042269 -0.398189 
				CHANNELS 3 Zrotation Xrotation Yrotation
				JOINT RightArm
				{
					OFFSET -19.709621 0.000000 0.000000 
					CHANNELS 3 Zrotation Xrotation Yrotation
					JOINT RightForeArm
					{
						OFFSET -25.566900 0.000000 0.000000 
						CHANNELS 3 Zrotation Xrotation Yrotation
						JOINT RightHand
						{
							OFFSET -25.401896 0.000000 0.000000 
							CHANNELS 3 Zrotation Xrotation Yrotation
							End Site
							{
								OFFSET -14.745877 0.000000 0.000000 
							}
						}
					}
				}
			}
		}
	}
	JOINT LeftUpLeg
	{
		OFFSET 9.830585 0.000000 0.000000 
		CHANNELS 3 Zrotation Xrotation Yrotation
		JOINT LeftLeg
		{
			OFFSET -0.000000 -46.474842 0.000000 
			CHANNELS 3 Zrotation Xrotation Yrotation
			JOINT LeftFoot
			{
				OFFSET -0.000000 -30.290520 0.000000 
				CHANNELS 3 Zrotation Xrotation Yrotation
				JOINT LeftToeBase
				{
					OFFSET -0.000000 -6.389880 14.745877 
					CHANNELS 3 Zrotation Xrotation Yrotation
					End Site
					{
						OFFSET -0.000000 0.000000 3.932234 
					}
				}
			}
		}
	}
	JOINT RightUpLeg
	{
		OFFSET -9.830585 0.000000 0.000000 
		CHANNELS 3 Zrotation Xrotation Yrotation
		JOINT RightLeg
		{
			OFFSET -0.000000 -46.474842 0.000000 
			CHANNELS 3 Zrotation Xrotation Yrotation
			JOINT RightFoot
			{
				OFFSET -0.000000 -30.290520 0.000000 
				CHANNELS 3 Zrotation Xrotation Yrotation
				JOINT RightToeBase
				{
					OFFSET -0.000000 -6.389880 14.745877 
					CHANNELS 3 Zrotation Xrotation Yrotation
					End Site
					{
						OFFSET -0.000000 0.000000 3.932234 
					}
				}
			}
		}
	}
}
MOTION
Frames: 6
Frame Time: 0.010000
0.000000 84.713707 0.000000 -1.285828 4.627394 7.931642 2.042731 -5.753464 -0.293387 1.358021 -4.671458 -0.078428 2.735983 8.372808 0.817394 0.153739 6.321202 1.382626 2.177265 9.908636 -0.634018 -70.810562 26.515207 -24.517319 -12.904980 1.974564 -3.332800 4.009123 1.857631 7.419170 -7.932825 9.624769 -10.016988 51.620613 55.740494 42.509903 5.265946 -10.225335 10.522717 -7.351641 -11.181693 7.585457 3.991419 -1.201732 3.199096 1.553064 -5.732531 0.113220 0.209894 6.362177 0.327748 0.000000 0.000000 0.000000 -8.082020 -5.696958 6.269960 9.602258 5.607098 -14.985081 0.000000 0.000000 0.000000 0.000000 0.000000 0.000000 
0.002693 84.706650 0.011724 -1.255682 4.595686 7.967600 2.165201 -5.806670 -0.289006 1.067557 -4.521824 -0.092862 2.921400 8.323476 0.748181 0.103879 6.300907 1.357386 2.331482 9.560395 -0.742520 -70.916260 26.735500 -24.180666 -12.827426 1.879652 -3.384112 3.988385 1.756658 7.383636 -7.806393 9.551550 -9.999758 51.731037 55.694862 42.410954 5.313974 -10.205791 10.488241 -7.568446 -11.188273 7.725713 3.961560 -1.157750 3.152452 1.550352 -5.753147 0.123081 0.272295 6.366053 0.274551 0.000000 0.000000 0.000000 -8.160645 -5.741421 6.378496 9.709046 5.638081 -16.502533 0.000000 0.000000 0.000000 0.000000 0.000000 0.000000 
-0.006460 84.710609 -0.001159 -1.272694 4.608264 7.976210 2.005690 -5.751602 -0.337020 1.396737 -4.643154 -0.090962 2.745986 8.376394 0.785671 0.123024 6.301270 1.357699 2.175557 9.899490 -0.595629 -70.802528 26.558952 -24.529507 -12.900455 1.964613 -3.353923 4.025989 1.846579 7.419460 -7.948418 9.580599 -9.950037 51.686977 55.730385 42.405380 5.313756 -10.233434 10.503094 -7.566360 -11.215580 7.713884 3.983577 -1.183662 3.162655 1.539396 -5.755713 0.114645 0.294407 6.371759 0.255511 0.000000 0.000000 0.000000 -8.130463 -5.736844 6.390189 9.697667 5.635312 -15.985246 0.000000 0.000000 0.000000 0.000000 0.000000 0.000000 
0.002404 84.706352 -0.001690 -1.253609 4.587584 7.975768 2.136227 -5.802383 -0.301655 1.118144 -4.519157 -0.094195 2.916542 8.323125 0.750961 0.098258 6.284585 1.360348 2.315200 9.560608 -0.747896 -70.938461 26.712669 -24.154781 -12.825846 1.889393 -3.401435 3.976743 1.763745 7.382708 -7.819491 9.545772 -9.995825 51.712570 55.712036 42.409840 5.319572 -10.231658 10.491608 -7.596696 -11.214320 7.690876 3.957896 -1.155061 3.124198 1.554955 -5.761572 0.148355 0.275859 6.371811 0.258939 0.000000 0.000000 0.000000 -8.163873 -5.743169 6.373976 9.714252 5.642231 -16.513882 0.000000 0.000000 0.000000 0.000000 0.000000 0.000000 
0.001834 84.712250 -0.025195 -1.278722 4.605461 7.941965 2.021359 -5.739069 -0.312283 1.393957 -4.666215 -0.082833 2.751111 8.377142 0.828165 0.144319 6.281316 1.398794 2.177144 9.920690 -0.628267 -70.830132 26.534357 -24.511444 -12.872630 1.973665 -3.352582 3.959044 1.852099 7.415573 -7.930571 9.623994 -10.004075 51.679688 55.699959 42.425663 5.285874 -10.216628 10.531700 -7.388767 -11.175507 7.551666 3.972494 -1.182964 3.160282 1.557947 -5.766917 0.162290 0.292382 6.388158 0.293069 0.000000 0.000000 0.000000 -8.089600 -5.699565 6.239676 9.596788 5.635285 -14.966433 0.000000 0.000000 0.000000 0.000000 0.000000 0.000000 
-0.002801 84.713058 -0.026866 -1.279278 4.612648 7.975170 2.102662 -5.871101 -0.309357 1.180929 -4.470957 -0.094954 2.917170 8.359468 0.788089 0.151085 6.196444 1.390248 2.313133 9.566599 -0.798767 -70.981155 26.644928 -24.137367 -12.811818 1.897672 -3.394216 4.001884 1.775121 7.390548 -7.791518 9.533191 -9.950084 51.649780 55.721004 42.406013 5.324362 -10.234102 10.504045 -7.624074 -11.218638 7.676509 3.972498 -1.193160 3.135031 1.555194 -5.768404 0.162383 0.301583 6.415989 0.349255 0.000000 0.000000 0.000000 -8.125748 -5.757366 6.411794 9.698228 5.642648 -15.886963 0.000000 0.000000 0.000000 0.000000 0.000000 0.000000 
